<svg width="21" height="22" viewBox="0 0 21 22" fill="none" xmlns="http://www.w3.org/2000/svg">
    <path fill-rule="evenodd" clip-rule="evenodd"
        d="M15.2075 7.57195H5.36377C4.37493 7.57195 3.59114 8.40626 3.65282 9.39317L4.08139 16.2503C4.13786 17.1538 4.88709 17.8577 5.79234 17.8577H14.779C15.6842 17.8577 16.4334 17.1538 16.4899 16.2503L16.9185 9.39317C16.9802 8.40626 16.1964 7.57195 15.2075 7.57195ZM5.36377 5.85767C3.38609 5.85767 1.81851 7.52628 1.94187 9.50011L2.37044 16.3573C2.48338 18.1642 3.98184 19.572 5.79234 19.572H14.779C16.5895 19.572 18.0879 18.1642 18.2009 16.3573L18.6294 9.50011C18.7528 7.52628 17.1852 5.85767 15.2075 5.85767H5.36377Z"
        fill="#000000" />
    <path fill-rule="evenodd" clip-rule="evenodd"
        d="M6 6.71491C6 4.34798 7.91878 2.4292 10.2857 2.4292C12.6526 2.4292 14.5714 4.34798 14.5714 6.71491V8.4292C14.5714 8.90259 14.1877 9.28634 13.7143 9.28634C13.2409 9.28634 12.8571 8.90259 12.8571 8.4292V6.71491C12.8571 5.29475 11.7059 4.14349 10.2857 4.14349C8.86555 4.14349 7.71429 5.29475 7.71429 6.71491V8.4292C7.71429 8.90259 7.33053 9.28634 6.85714 9.28634C6.38376 9.28634 6 8.90259 6 8.4292V6.71491Z"
        fill="#000000" />
</svg>
