<svg width="44" height="44" viewBox="0 0 44 44" fill="none" xmlns="http://www.w3.org/2000/svg">
    <rect x="0.5" y="0.5" width="43" height="43" rx="13.5" stroke="white"/>
    <path d="M17.7574 16.7071C17.3669 16.3166 16.7337 16.3166 16.3432 16.7071C15.9527 17.0976 15.9527 17.7308 16.3432 18.1213L26.2427 28.0208C26.6332 28.4113 27.2664 28.4113 27.6569 28.0208C28.0474 27.6303 28.0474 26.9971 27.6569 26.6066L17.7574 16.7071Z" fill="white"/>
    <path d="M16.3433 26.6066C15.9528 26.9971 15.9528 27.6303 16.3433 28.0208C16.7339 28.4114 17.367 28.4114 17.7576 28.0208L27.657 18.1213C28.0476 17.7308 28.0476 17.0976 27.657 16.7071C27.2665 16.3166 26.6334 16.3166 26.2428 16.7071L16.3433 26.6066Z" fill="white"/>
</svg>
