<svg width="18" height="18" viewBox="0 0 18 18" fill="none" xmlns="http://www.w3.org/2000/svg">
    <path fill-rule="evenodd" clip-rule="evenodd"
        d="M3.75 6.75L4.35998 15.8997C4.43877 17.0816 5.42045 18 6.605 18H11.395C12.5795 18 13.5612 17.0816 13.64 15.8997L14.25 6.75H3.75ZM5.35333 8.25L5.85666 15.7999C5.88292 16.1939 6.21015 16.5 6.605 16.5H11.395C11.7899 16.5 12.1171 16.1939 12.1433 15.7999L12.6467 8.25H5.35333Z"
        fill="#173334" />
    <path fill-rule="evenodd" clip-rule="evenodd"
        d="M3.92854 3.42874L4.18665 1.8801C4.36747 0.795179 5.30615 0 6.40604 0H11.594C12.6939 0 13.6325 0.795179 13.8134 1.8801L14.0715 3.42875C14.6342 3.83773 15 4.50114 15 5.25V6C15 7.24264 13.9926 8.25 12.75 8.25H5.25C4.00736 8.25 3 7.24264 3 6V5.25C3 4.50114 3.36584 3.83773 3.92854 3.42874ZM6.40604 1.5H11.594C11.9606 1.5 12.2735 1.76506 12.3338 2.1267L12.4793 3H5.52069L5.66624 2.1267C5.72651 1.76506 6.03941 1.5 6.40604 1.5ZM5.25 4.5C4.83579 4.5 4.5 4.83579 4.5 5.25V6C4.5 6.41421 4.83579 6.75 5.25 6.75H12.75C13.1642 6.75 13.5 6.41421 13.5 6V5.25C13.5 4.83579 13.1642 4.5 12.75 4.5H5.25Z"
        fill="#173334" />
    <rect x="8.25" y="7.5" width="1.5" height="6" rx="0.75" fill="#173334" />
</svg>
