<svg width="9" height="9" viewBox="0 0 9 9" fill="none" xmlns="http://www.w3.org/2000/svg">
<g id="Group 11170">
<path id="Shape" d="M0.885213 3.79402C0.396323 3.79402 0 4.07711 0 4.42631C0 4.77552 0.396323 5.05861 0.885213 5.05861H7.96692C8.45581 5.05861 8.85213 4.77552 8.85213 4.42631C8.85213 4.07711 8.45581 3.79402 7.96692 3.79402H0.885213Z" fill="black"/>
<path id="Shape_2" d="M5.05829 0.885213C5.05829 0.396323 4.7752 4.29028e-08 4.426 2.76385e-08C4.07679 1.23742e-08 3.7937 0.396323 3.7937 0.885213L3.7937 7.96692C3.7937 8.45581 4.07679 8.85213 4.426 8.85213C4.7752 8.85213 5.05829 8.45581 5.05829 7.96692L5.05829 0.885213Z" fill="black"/>
</g>
</svg>
