<svg width="25" height="20" viewBox="0 0 25 20" fill="none" xmlns="http://www.w3.org/2000/svg">
    <g clip-path="url(#clip0_34372_1906)">
        <path d="M3.67371 15.6646H17.0733C21.3141 15.6646 24.752 12.2267 24.752 7.98585C24.752 3.74499 21.3141 0.307129 17.0733 0.307129H1.60776C1.13511 0.307129 0.751953 0.690299 0.751953 1.16293C0.751953 1.63559 1.13511 2.01873 1.60776 2.01873H17.0733C20.3688 2.01873 23.0404 4.69031 23.0404 7.98585C23.0404 11.2814 20.3688 13.953 17.0733 13.953H3.61244L6.45361 11.1118C6.78783 10.7776 6.78783 10.2357 6.45361 9.9015C6.11942 9.56728 5.57756 9.56728 5.24334 9.9015L1.00273 14.1421C0.828199 14.3166 0.744813 14.5478 0.752566 14.7764C0.743909 15.0061 0.827258 15.2387 1.00261 15.414L5.24322 19.6546C5.57741 19.9888 6.11928 19.9888 6.4535 19.6546C6.78771 19.3204 6.78771 18.7786 6.4535 18.4443L3.67371 15.6646Z" fill="white"/>
    </g>
    <defs>
        <clipPath id="clip0_34372_1906">
            <rect width="25" height="20" fill="white"/>
        </clipPath>
    </defs>
</svg>
